Coordinates
version=1
nRows=32
nColumns=12
inDegrees=yes

Units are S.I. units (second, meters, Newtons, ...)
Angles are in degrees

endheader
time	SC_y	SC_z	SC_x	AC_y	AC_z	AC_x	GH_y	GH_z	GH_yy	EL_x	PS_y
       0.0              -45.83        -0.5792          74.72          60.86         -4.352          -17.8         -19.66          33.23         -35.74          93.31          111.2
   0.03427              -45.83        -0.5776          74.71          60.86         -4.354         -17.79         -19.68          33.23         -35.72          93.31          111.2
   0.06853              -45.83        -0.5758          74.71          60.86         -4.355         -17.79         -19.69          33.24          -35.7          93.31          111.2
    0.1028              -45.83         -0.574           74.7          60.85         -4.357         -17.78         -19.71          33.24         -35.68          93.31          111.2
    0.1371              -45.83        -0.5721           74.7          60.85         -4.359         -17.78         -19.72          33.25         -35.66          93.31          111.2
    0.1713              -45.83          -0.57          74.69          60.85         -4.361         -17.77         -19.74          33.26         -35.64           93.3          111.2
    0.2056              -45.83        -0.5678          74.68          60.84         -4.363         -17.77         -19.76          33.26         -35.62           93.3          111.1
    0.2399              -45.83        -0.5654          74.67          60.84         -4.366         -17.76         -19.78          33.27         -35.59           93.3          111.1
    0.2741              -45.83        -0.5629          74.67          60.83         -4.368         -17.75          -19.8          33.28         -35.57           93.3          111.1
    0.3084              -45.83        -0.5601          74.66          60.83         -4.371         -17.74         -19.82          33.29         -35.54          93.29          111.1
    0.3427              -45.83        -0.5572          74.65          60.82         -4.373         -17.74         -19.85           33.3         -35.51          93.29          111.1
    0.3769              -45.83        -0.5541          74.64          60.82         -4.376         -17.73         -19.87          33.31         -35.47          93.29          111.0
    0.4112              -45.83        -0.5507          74.63          60.81          -4.38         -17.72          -19.9          33.32         -35.44          93.29          111.0
    0.4455              -45.83         -0.547          74.61           60.8         -4.383         -17.71         -19.93          33.33          -35.4          93.28          111.0
    0.4797              -45.84         -0.543           74.6           60.8         -4.387          -17.7         -19.96          33.35         -35.36          93.28          110.9
     0.514              -45.84        -0.5387          74.59          60.79         -4.391         -17.69          -20.0          33.36         -35.31          93.27          110.9
    0.5483              -45.84        -0.5341          74.57          60.78         -4.396         -17.67         -20.04          33.38         -35.26          93.27          110.9
    0.5825              -45.84         -0.529          74.55          60.77         -4.401         -17.66         -20.08          33.39         -35.21          93.26          110.8
    0.6168              -45.84        -0.5234          74.54          60.76         -4.406         -17.65         -20.13          33.41         -35.15          93.26          110.8
    0.6511              -45.84        -0.5173          74.52          60.75         -4.412         -17.63         -20.18          33.43         -35.08          93.25          110.7
    0.6853              -45.84        -0.5106          74.49          60.74         -4.418         -17.61         -20.23          33.46         -35.01          93.24          110.7
    0.7196              -45.85        -0.5033          74.47          60.72         -4.425         -17.59         -20.29          33.48         -34.93          93.24          110.6
    0.7539              -45.85        -0.4951          74.44          60.71         -4.433         -17.57         -20.36          33.51         -34.85          93.23          110.6
    0.7881              -45.85        -0.4861          74.41          60.69         -4.442         -17.54         -20.44          33.54         -34.75          93.22          110.5
    0.8224              -45.85        -0.4761          74.38          60.67         -4.452         -17.52         -20.52          33.57         -34.65          93.21          110.4
    0.8567              -45.86        -0.4649          74.34          60.65         -4.462         -17.49         -20.61          33.61         -34.53           93.2          110.3
    0.8909              -45.86        -0.4524           74.3          60.63         -4.474         -17.45         -20.72          33.65         -34.39          93.19          110.2
    0.9252              -45.86        -0.4383          74.26           60.6         -4.488         -17.42         -20.83           33.7         -34.25          93.17          110.1
    0.9594              -45.87        -0.4224           74.2          60.57         -4.503         -17.37         -20.97          33.75         -34.08          93.15          110.0
    0.9937              -45.87        -0.4044          74.15          60.54         -4.521         -17.32         -21.12          33.81         -33.88          93.14          109.8
     1.028              -45.88        -0.3837          74.08           60.5         -4.541         -17.27         -21.29          33.88         -33.67          93.12          109.6
     1.062              -45.89        -0.3601           74.0          60.46         -4.563          -17.2         -21.48          33.96         -33.41          93.09          109.5
